<svg width="229" height="72" viewBox="0 0 229 72" fill="none" xmlns="http://www.w3.org/2000/svg">
<rect x="1" y="24" width="218" height="47" rx="6" fill="white" stroke="black" stroke-width="2"/>
<path d="M26.904 38.708V42.712L25.14 42.936C24.8973 42.7493 24.664 42.3573 24.44 41.76H21.08V54.752C21.8267 55.0507 22.34 55.3587 22.62 55.676L22.34 58H15.788L15.508 55.676C15.7507 55.3587 16.264 55.0507 17.048 54.752V41.76H13.688C13.464 42.3573 13.2307 42.7493 12.988 42.936L11.224 42.712V38.708H26.904ZM36.2608 47.444C34.8421 47.444 33.8621 47.7147 33.3208 48.256V54.668C34.8328 54.948 35.8688 55.34 36.4288 55.844L36.1488 58H28.1408L27.8608 55.844C28.1221 55.4893 28.6355 55.172 29.4008 54.892V47.108C28.7475 46.884 28.2341 46.5667 27.8608 46.156L28.1408 44C29.1675 43.776 30.0915 43.664 30.9128 43.664C31.7341 43.664 32.4155 43.6827 32.9568 43.72V45.484C33.3861 44.98 33.9368 44.5693 34.6088 44.252C35.2808 43.916 35.8875 43.748 36.4288 43.748C36.9888 43.748 37.3715 43.7947 37.5768 43.888L37.4928 47.528C37.1195 47.472 36.7088 47.444 36.2608 47.444ZM39.2763 46.072C39.2763 45.792 39.2856 45.4933 39.3043 45.176C41.0403 44.2427 42.9069 43.776 44.9043 43.776C46.9016 43.776 48.3296 44.1587 49.1883 44.924C50.0656 45.6707 50.5043 46.9213 50.5043 48.676V54.64C51.1576 54.7707 51.6709 54.9293 52.0443 55.116V57.552C51.0923 58 49.7296 58.224 47.9563 58.224C47.7696 57.7387 47.6109 57.1507 47.4803 56.46C46.6776 57.636 45.2216 58.224 43.1123 58.224C41.8616 58.224 40.7883 57.86 39.8923 57.132C39.0149 56.404 38.5763 55.4147 38.5763 54.164C38.5763 52.9133 38.9869 51.9333 39.8083 51.224C40.6483 50.496 41.8896 50.132 43.5323 50.132H46.5843V48.788C46.5843 47.332 45.8096 46.604 44.2603 46.604C43.6816 46.604 43.2056 46.66 42.8323 46.772C42.7949 47.556 42.6829 48.1627 42.4963 48.592H39.7523C39.4349 47.9387 39.2763 47.0987 39.2763 46.072ZM44.3163 55.368C45.2683 55.368 46.0243 55.088 46.5843 54.528V52.232H44.6243C43.2803 52.232 42.6083 52.7453 42.6083 53.772C42.6083 54.2387 42.7483 54.6213 43.0283 54.92C43.3269 55.2187 43.7563 55.368 44.3163 55.368ZM53.3244 44C54.3511 43.776 55.2751 43.664 56.0964 43.664C56.9177 43.664 57.5991 43.6827 58.1404 43.72V45.12C58.6071 44.728 59.2231 44.4107 59.9884 44.168C60.7724 43.9067 61.5191 43.776 62.2284 43.776C64.0577 43.776 65.3364 44.2053 66.0644 45.064C66.8111 45.9227 67.1844 47.4067 67.1844 49.516V54.892C67.9124 55.172 68.4257 55.4893 68.7244 55.844L68.4444 58H62.0044L61.7244 55.844C61.9857 55.4893 62.4991 55.172 63.2644 54.892V49.348C63.2644 48.34 63.0964 47.668 62.7604 47.332C62.4431 46.9773 61.8644 46.8 61.0244 46.8C60.1844 46.8 59.3444 47.0987 58.5044 47.696V54.892C59.2324 55.172 59.7457 55.4893 60.0444 55.844L59.7644 58H53.3244L53.0444 55.844C53.3057 55.4893 53.8191 55.172 54.5844 54.892V47.108C53.9311 46.884 53.4177 46.5667 53.0444 46.156L53.3244 44ZM75.2968 46.296C74.0648 46.296 73.4488 46.66 73.4488 47.388C73.4488 48.0787 74.0928 48.592 75.3808 48.928L77.5928 49.516C79.8701 50.1133 81.0088 51.4293 81.0088 53.464C81.0088 54.864 80.5141 56.012 79.5248 56.908C78.5541 57.7853 76.9954 58.224 74.8488 58.224C72.7208 58.224 71.0594 57.9253 69.8648 57.328C69.8461 57.1227 69.8368 56.9173 69.8368 56.712C69.8368 55.6853 70.0421 54.7613 70.4528 53.94H72.7768C73.0194 54.388 73.1781 54.8547 73.2528 55.34C73.6261 55.452 74.1581 55.508 74.8488 55.508C76.4914 55.508 77.3128 55.0413 77.3128 54.108C77.3128 53.8093 77.2008 53.5667 76.9768 53.38C76.7528 53.1747 76.3141 52.9787 75.6608 52.792L73.4488 52.148C72.3101 51.8307 71.4234 51.364 70.7888 50.748C70.1541 50.1133 69.8368 49.1893 69.8368 47.976C69.8368 46.744 70.3314 45.736 71.3208 44.952C72.3101 44.168 73.7194 43.776 75.5488 43.776C77.3968 43.776 78.9554 44.0467 80.2248 44.588C80.2434 44.7747 80.2528 44.9613 80.2528 45.148C80.2528 46.1187 80.0474 47.0147 79.6368 47.836H77.3408C77.0981 47.4067 76.9394 46.9587 76.8648 46.492C76.3421 46.3613 75.8194 46.296 75.2968 46.296ZM82.2736 38.12C83.3189 37.8773 84.2896 37.756 85.1856 37.756C86.0816 37.756 86.8376 37.784 87.4536 37.84V54.892C88.1816 55.172 88.6949 55.4893 88.9936 55.844L88.7136 58H82.2736L81.9936 55.844C82.2549 55.4893 82.7682 55.172 83.5336 54.892V41.228C82.8802 41.004 82.3669 40.6867 81.9936 40.276L82.2736 38.12ZM90.7099 46.072C90.7099 45.792 90.7192 45.4933 90.7379 45.176C92.4739 44.2427 94.3405 43.776 96.3379 43.776C98.3352 43.776 99.7632 44.1587 100.622 44.924C101.499 45.6707 101.938 46.9213 101.938 48.676V54.64C102.591 54.7707 103.105 54.9293 103.478 55.116V57.552C102.526 58 101.163 58.224 99.3899 58.224C99.2032 57.7387 99.0445 57.1507 98.9139 56.46C98.1112 57.636 96.6552 58.224 94.5459 58.224C93.2952 58.224 92.2219 57.86 91.3259 57.132C90.4485 56.404 90.0099 55.4147 90.0099 54.164C90.0099 52.9133 90.4205 51.9333 91.2419 51.224C92.0819 50.496 93.3232 50.132 94.9659 50.132H98.0179V48.788C98.0179 47.332 97.2432 46.604 95.6939 46.604C95.1152 46.604 94.6392 46.66 94.2659 46.772C94.2285 47.556 94.1165 48.1627 93.9299 48.592H91.1859C90.8685 47.9387 90.7099 47.0987 90.7099 46.072ZM95.7499 55.368C96.7019 55.368 97.4579 55.088 98.0179 54.528V52.232H96.0579C94.7139 52.232 94.0419 52.7453 94.0419 53.772C94.0419 54.2387 94.1819 54.6213 94.4619 54.92C94.7605 55.2187 95.1899 55.368 95.7499 55.368ZM109.574 40.472V44H113.578V46.352H109.574V53.436C109.574 54.0333 109.658 54.472 109.826 54.752C109.994 55.0133 110.395 55.144 111.03 55.144C111.665 55.144 112.346 55.004 113.074 54.724L113.914 56.908C112.477 57.636 111.002 58 109.49 58C107.997 58 106.979 57.6827 106.438 57.048C105.915 56.3947 105.654 55.452 105.654 54.22V46.352H104.394L104.086 44.644C104.385 44.2893 105.001 43.9347 105.934 43.58C106.158 42.0493 106.69 41.0133 107.53 40.472H109.574ZM115.232 44C116.277 43.7573 117.248 43.636 118.144 43.636C119.04 43.636 119.796 43.664 120.412 43.72V54.892C121.14 55.172 121.653 55.4893 121.952 55.844L121.672 58H115.232L114.952 55.844C115.213 55.4893 115.727 55.172 116.492 54.892V47.108C115.839 46.884 115.325 46.5667 114.952 46.156L115.232 44ZM118.396 42.068C116.847 42.068 116.072 41.368 116.072 39.968C116.072 38.5493 116.847 37.84 118.396 37.84C119.964 37.84 120.748 38.5493 120.748 39.968C120.748 41.368 119.964 42.068 118.396 42.068ZM129.54 58.224C127.337 58.224 125.704 57.636 124.64 56.46C123.576 55.284 123.044 53.5107 123.044 51.14C123.044 48.7507 123.632 46.9307 124.808 45.68C126.002 44.4107 127.71 43.776 129.932 43.776C132.153 43.776 133.796 44.336 134.86 45.456C135.942 46.576 136.484 48.3307 136.484 50.72C136.484 53.0907 135.877 54.9387 134.664 56.264C133.469 57.5707 131.761 58.224 129.54 58.224ZM127.076 50.888C127.076 53.8747 127.972 55.368 129.764 55.368C130.678 55.368 131.35 55.032 131.78 54.36C132.228 53.6693 132.452 52.5493 132.452 51C132.452 48.088 131.537 46.632 129.708 46.632C128.812 46.632 128.149 46.9587 127.72 47.612C127.29 48.2467 127.076 49.3387 127.076 50.888ZM138.199 44C139.226 43.776 140.15 43.664 140.971 43.664C141.793 43.664 142.474 43.6827 143.015 43.72V45.12C143.482 44.728 144.098 44.4107 144.863 44.168C145.647 43.9067 146.394 43.776 147.103 43.776C148.933 43.776 150.211 44.2053 150.939 45.064C151.686 45.9227 152.059 47.4067 152.059 49.516V54.892C152.787 55.172 153.301 55.4893 153.599 55.844L153.319 58H146.879L146.599 55.844C146.861 55.4893 147.374 55.172 148.139 54.892V49.348C148.139 48.34 147.971 47.668 147.635 47.332C147.318 46.9773 146.739 46.8 145.899 46.8C145.059 46.8 144.219 47.0987 143.379 47.696V54.892C144.107 55.172 144.621 55.4893 144.919 55.844L144.639 58H138.199L137.919 55.844C138.181 55.4893 138.694 55.172 139.459 54.892V47.108C138.806 46.884 138.293 46.5667 137.919 46.156L138.199 44ZM154.852 56.18C154.852 54.7613 155.645 54.052 157.232 54.052C158.818 54.052 159.612 54.7613 159.612 56.18C159.612 57.4307 159.294 58.588 158.66 59.652C158.025 60.7347 157.26 61.5933 156.364 62.228L155.188 61.5C155.804 60.4733 156.112 59.4653 156.112 58.476C156.112 58.3267 156.102 58.1867 156.084 58.056C155.729 57.944 155.43 57.72 155.188 57.384C154.964 57.0293 154.852 56.628 154.852 56.18ZM174.697 38.68L174.977 41.004C174.678 41.3587 174.165 41.676 173.437 41.956V54.752C174.183 55.0507 174.697 55.3587 174.977 55.676L174.697 58H168.145L167.865 55.676C168.107 55.3587 168.621 55.0507 169.405 54.752V41.956C168.639 41.676 168.126 41.3587 167.865 41.004L168.145 38.68H174.697ZM176.891 44C177.917 43.776 178.841 43.664 179.663 43.664C180.484 43.664 181.165 43.6827 181.707 43.72V45.12C182.173 44.728 182.789 44.4107 183.555 44.168C184.339 43.9067 185.085 43.776 185.795 43.776C187.624 43.776 188.903 44.2053 189.631 45.064C190.377 45.9227 190.751 47.4067 190.751 49.516V54.892C191.479 55.172 191.992 55.4893 192.291 55.844L192.011 58H185.571L185.291 55.844C185.552 55.4893 186.065 55.172 186.831 54.892V49.348C186.831 48.34 186.663 47.668 186.327 47.332C186.009 46.9773 185.431 46.8 184.591 46.8C183.751 46.8 182.911 47.0987 182.071 47.696V54.892C182.799 55.172 183.312 55.4893 183.611 55.844L183.331 58H176.891L176.611 55.844C176.872 55.4893 177.385 55.172 178.151 54.892V47.108C177.497 46.884 176.984 46.5667 176.611 46.156L176.891 44ZM199.843 46.632C198.126 46.632 197.267 48.1067 197.267 51.056C197.267 52.5493 197.5 53.5947 197.967 54.192C198.452 54.7707 199.143 55.06 200.039 55.06C201.458 55.06 202.708 54.9293 203.791 54.668L204.631 56.824C204.034 57.216 203.231 57.552 202.223 57.832C201.215 58.0933 200.235 58.224 199.283 58.224C195.251 58.224 193.235 55.8907 193.235 51.224C193.235 48.4987 193.935 46.5387 195.335 45.344C196.586 44.2987 198.107 43.776 199.899 43.776C201.691 43.776 203.184 44.112 204.379 44.784C204.398 44.9707 204.407 45.148 204.407 45.316C204.407 46.38 204.164 47.388 203.679 48.34H201.215C200.954 47.8733 200.795 47.3133 200.739 46.66C200.515 46.6413 200.216 46.632 199.843 46.632Z" fill="black"/>
<circle cx="210" cy="19" r="17" fill="white"/>
<path d="M209.156 10.1333V18.1556H201.176C201.26 16.7622 201.513 15.3267 201.893 13.8911C202.273 12.4978 202.738 11.2311 203.202 10.1333H209.156ZM201.133 19.8444C201.176 22.6311 201.767 25.2911 202.949 27.8667H209.156V19.8444H201.133ZM210.844 19.8444V27.8667H216.798C217.304 26.7689 217.727 25.5022 218.107 24.1089C218.487 22.6733 218.698 21.2378 218.824 19.8444H210.844ZM217.051 10.1333H210.844V18.1556H218.867C218.824 15.3689 218.233 12.7089 217.051 10.1333ZM229 18.9578C229 29.4289 220.471 37.9156 210 37.9156C206.791 37.9156 203.582 37.0711 200.796 35.5511L192.267 37.9578C192.182 38 192.14 38 192.056 38C191.844 38 191.633 37.9156 191.464 37.7467L191.422 37.7044C191.211 37.4933 191.127 37.1556 191.211 36.86L193.576 28.5C191.887 25.6289 191 22.3356 191 18.9578C191 8.52889 199.529 0 210 0C220.471 0 229 8.52889 229 18.9578ZM225.2 19C225.2 18.5356 224.82 18.1556 224.356 18.1556H220.513C220.471 15.6222 220.007 12.92 218.867 10.1333H220.978C221.442 10.1333 221.822 9.75333 221.822 9.28889C221.822 8.82444 221.442 8.44444 220.978 8.44444H218.107C217.389 7.00889 216.46 5.57333 215.32 4.13778C215.024 3.75778 214.476 3.71556 214.138 4.01111C213.758 4.30667 213.716 4.85556 214.011 5.19333C214.856 6.24889 215.616 7.34667 216.207 8.48667H210.844V4.68667C210.844 4.22222 210.464 3.84222 210 3.84222C209.536 3.84222 209.156 4.22222 209.156 4.68667V8.48667H204.004C205.06 6.46 206.031 5.23556 206.031 5.19333C206.327 4.81333 206.242 4.30667 205.904 4.01111C205.524 3.71556 205.018 3.8 204.722 4.13778C204.68 4.18 203.456 5.78444 202.147 8.44444H199.022C198.558 8.44444 198.178 8.82444 198.178 9.28889C198.178 9.75333 198.558 10.1333 199.022 10.1333H201.387C200.5 12.3711 199.698 15.1156 199.529 18.1556H195.644C195.18 18.1556 194.8 18.5356 194.8 19C194.8 19.4644 195.18 19.8444 195.644 19.8444H199.487C199.529 22.3778 199.993 25.08 201.133 27.8667H199.022C198.558 27.8667 198.178 28.2467 198.178 28.7111C198.178 29.1756 198.558 29.5556 199.022 29.5556H201.893C202.611 30.9911 203.54 32.4267 204.68 33.8622C204.849 34.0733 205.102 34.2 205.356 34.2C205.524 34.2 205.736 34.1578 205.862 34.0311C206.242 33.7356 206.284 33.1867 205.989 32.8489C205.144 31.7933 204.384 30.6956 203.793 29.5556H209.156V33.3556C209.156 33.82 209.536 34.2 210 34.2C210.464 34.2 210.844 33.82 210.844 33.3556V29.5556H215.996C214.94 31.5822 213.969 32.8067 213.969 32.8489C213.673 33.2289 213.758 33.7356 214.096 34.0311C214.264 34.1578 214.433 34.2 214.602 34.2C214.856 34.2 215.109 34.0733 215.278 33.8622C215.32 33.82 216.544 32.2156 217.853 29.5556H220.978C221.442 29.5556 221.822 29.1756 221.822 28.7111C221.822 28.2467 221.442 27.8667 220.978 27.8667H218.613C219.5 25.6289 220.302 22.8844 220.471 19.8444H224.356C224.82 19.8444 225.2 19.4644 225.2 19Z" fill="black"/>
</svg>
